#!OML:ASF E:\acrobat2\Project_11_07_03\Capture day 1\Session 1\Acrobat.ASF
:FULLY-SPECIFIED
:DEGREES
109
root 9.37739 18.1048 -37.975 3.98694 1.28652 0.66201
lowerback -6.36943 0.115749 -0.234872
upperback -1.82927 0.18037 -0.529631
thorax 1.68743 0.0895615 -0.398584
lowerneck 4.3737 -8.18208 -5.47139
upperneck 3.98439 -11.3025 6.362
head 1.2492 -5.70875 2.94188
rclavicle -2.29224e-015 1.3418e-014
rhumerus -41.1774 4.07237 -85.789
rradius 29.0728
rwrist 4.54541
rhand 3.91156 -51.0041
rfingers 7.12502
rthumb 29.3313 -78.7104
lclavicle -2.29224e-015 1.3418e-014
lhumerus -35.3702 -14.4492 92.591
lradius 21.8578
lwrist 9.36276
lhand -9.29407 -10.0051
lfingers 7.12502
lthumb 16.6633 19.2996
rfemur 3.9231 8.41117 20.7776
rtibia 1.49199
rfoot -19.366 -19.1201
rtoes 8.90571
lfemur -0.550575 -1.86609 -17.492
ltibia 5.17409
lfoot -7.12902 -4.88895
ltoes 17.2949
110
root 9.37601 18.1052 -37.9745 3.97826 1.28771 0.643266
lowerback -6.36091 0.116979 -0.233656
upperback -1.82278 0.181783 -0.523136
thorax 1.68936 0.0902741 -0.39249
lowerneck 4.38599 -8.12156 -5.42753
upperneck 3.96102 -11.2206 6.40526
head 1.23416 -5.6674 2.9513
rclavicle -2.45375e-015 1.0138e-014
rhumerus -41.1892 4.10128 -85.7922
rradius 29.0509
rwrist 4.42174
rhand 3.44503 -50.5814
rfingers 7.12502
rthumb 28.8857 -78.3647
lclavicle -2.45375e-015 1.0138e-014
lhumerus -35.3828 -14.5409 92.6419
lradius 21.875
lwrist 9.40127
lhand -9.21255 -9.95155
lfingers 7.12502
lthumb 16.7418 19.3466
rfemur 3.90922 8.38922 20.8025
rtibia 1.55514
rfoot -19.3946 -19.0798
rtoes 8.96813
lfemur -0.557311 -1.91328 -17.4665
ltibia 5.20916
lfoot -7.10307 -4.91883
ltoes 17.6045
111
root 9.37474 18.1058 -37.9738 3.96931 1.28608 0.624981
lowerback -6.35146 0.119644 -0.229418
upperback -1.81745 0.18494 -0.518399
thorax 1.68959 0.0918597 -0.38977
lowerneck 4.38381 -8.05417 -5.38407
upperneck 3.95824 -11.1302 6.45807
head 1.2284 -5.62146 2.96291
rclavicle -8.35517e-016 -6.4605e-015
rhumerus -41.2122 4.11312 -85.7833
rradius 29.0648
rwrist 4.36796
rhand 3.03867 -50.1552
rfingers 7.12502
rthumb 28.4975 -78.0043
lclavicle -8.35517e-016 -6.4605e-015
lhumerus -35.3975 -14.6408 92.6946
lradius 21.8964
lwrist 9.4455
lhand -9.13838 -9.87477
lfingers 7.12502
lthumb 16.8132 19.4173
rfemur 3.89264 8.36027 20.824
rtibia 1.61981
rfoot -19.4181 -19.0342
rtoes 8.97809
lfemur -0.55935 -1.96932 -17.4444
ltibia 5.24146
lfoot -7.06528 -4.93531
ltoes 17.9868
112
root 9.37353 18.1064 -37.973 3.96433 1.28827 0.603814
lowerback -6.34072 0.134422 -0.209009
upperback -1.79866 0.203564 -0.528158
thorax 1.70315 0.101187 -0.409827
lowerneck 4.29864 -8.00076 -5.29988
upperneck 3.98978 -11.0555 6.50803
head 1.24635 -5.58112 2.96127
rclavicle -5.62188e-015 2.21645e-014
rhumerus -41.2155 4.05575 -85.7615
rradius 29.1054
rwrist 4.37733
rhand 2.60095 -49.6253
rfingers 7.12502
rthumb 28.0792 -77.5437
lclavicle -5.62188e-015 2.21645e-014
lhumerus -35.3795 -14.7997 92.739
lradius 21.925
lwrist 9.50385
lhand -9.0659 -9.78844
lfingers 7.12502
lthumb 16.883 19.4977
rfemur 3.87268 8.32319 20.846
rtibia 1.66875
rfoot -19.4236 -18.9825
rtoes 9.00181
lfemur -0.562662 -2.02918 -17.4204
ltibia 5.27131
lfoot -7.02033 -4.94286
ltoes 18.3446
113
root 9.37225 18.107 -37.972 3.96493 1.29852 0.578844
lowerback -6.32767 0.156702 -0.174705
upperback -1.7719 0.231545 -0.548197
thorax 1.72377 0.115219 -0.447526
lowerneck 4.149 -7.95967 -5.18624
upperneck 4.04647 -10.9952 6.55575
head 1.28258 -5.54625 2.94982
rclavicle 1.84497e-015 -8.64713e-015
rhumerus -41.2075 3.95409 -85.7406
rradius 29.1532
rwrist 4.38696
rhand 2.43534 -49.4903
rfingers 7.12502
rthumb 27.9209 -77.4345
lclavicle 1.84497e-015 -8.64713e-015
lhumerus -35.3385 -14.9912 92.7697
lradius 21.9583
lwrist 9.55797
lhand -8.99586 -9.71678
lfingers 7.12502
lthumb 16.9504 19.5636
rfemur 3.856 8.28129 20.8709
rtibia 1.69374
rfoot -19.4149 -18.9264
rtoes 9.08661
lfemur -0.569375 -2.09495 -17.3915
ltibia 5.29519
lfoot -6.97657 -4.94685
ltoes 18.7161
114
root 9.37076 18.1076 -37.9708 3.97385 1.3176 0.547602
lowerback -6.32117 0.185557 -0.128882
upperback -1.73774 0.267755 -0.57401
thorax 1.75586 0.133409 -0.496963
lowerneck 3.95528 -7.9308 -5.05407
upperneck 4.114 -10.9503 6.60694
head 1.33011 -5.5178 2.93374
rclavicle -3.7738e-015 -6.16232e-015
rhumerus -41.1847 3.80786 -85.7143
rradius 29.1953
rwrist 4.40577
rhand 2.20053 -49.2521
rfingers 7.12502
rthumb 27.6964 -77.2326
lclavicle -3.7738e-015 -6.16232e-015
lhumerus -35.2749 -15.2133 92.7926
lradius 21.9873
lwrist 9.60914
lhand -8.93233 -9.66845
lfingers 7.12502
lthumb 17.0116 19.6067
rfemur 3.84329 8.24143 20.9026
rtibia 1.67716
rfoot -19.3734 -18.8897
rtoes 9.15226
lfemur -0.583911 -2.16723 -17.3534
ltibia 5.31135
lfoot -6.94137 -4.94953
ltoes 19.0867
115
root 9.36882 18.1082 -37.9696 3.99065 1.34114 0.512549
lowerback -6.32656 0.216715 -0.0846121
upperback -1.70102 0.307152 -0.597601
thorax 1.7973 0.153229 -0.54294
lowerneck 3.74948 -7.90726 -4.91949
upperneck 4.19147 -10.9131 6.65376
head 1.3831 -5.49273 2.91502
rclavicle -4.00054e-015 1.92821e-014
rhumerus -41.1535 3.63877 -85.6791
rradius 29.2291
rwrist 4.44285
rhand 2.00548 -49.1029
rfingers 7.12502
rthumb 27.5098 -77.1133
lclavicle -4.00054e-015 1.92821e-014
lhumerus -35.1988 -15.4476 92.8176
lradius 22.0039
lwrist 9.66199
lhand -8.87072 -9.6513
lfingers 7.12502
lthumb 17.0709 19.6187
rfemur 3.82692 8.20166 20.9378
rtibia 1.64293
rfoot -19.3147 -18.86
rtoes 9.2376
lfemur -0.607808 -2.25035 -17.3073
ltibia 5.31967
lfoot -6.91897 -4.9568
ltoes 19.5612
